<mxfile host="65bd71144e">
    <diagram id="R65K7NeBFECWdERMDkwd" name="Page-1">
        <mxGraphModel dx="1114" dy="589" grid="1" gridSize="10" guides="1" tooltips="1" connect="1" arrows="1" fold="1" page="1" pageScale="1" pageWidth="827" pageHeight="1169" math="0" shadow="0">
            <root>
                <mxCell id="0"/>
                <mxCell id="1" parent="0"/>
                <mxCell id="61" value="usecases" style="swimlane;whiteSpace=wrap;html=1;" parent="1" vertex="1">
                    <mxGeometry x="460" y="660" width="160" height="120" as="geometry"/>
                </mxCell>
                <mxCell id="62" style="edgeStyle=none;html=1;dashed=1;endArrow=open;endFill=0;" parent="61" edge="1">
                    <mxGeometry relative="1" as="geometry">
                        <mxPoint x="140" y="70" as="sourcePoint"/>
                    </mxGeometry>
                </mxCell>
                <mxCell id="60" value="PostProduct" style="rounded=0;whiteSpace=wrap;html=1;" parent="61" vertex="1">
                    <mxGeometry x="20" y="40" width="120" height="60" as="geometry"/>
                </mxCell>
                <mxCell id="65" value="entities" style="swimlane;whiteSpace=wrap;html=1;" parent="1" vertex="1">
                    <mxGeometry x="140" y="280" width="800" height="300" as="geometry"/>
                </mxCell>
                <mxCell id="69" style="edgeStyle=none;html=1;exitX=1;exitY=0.5;exitDx=0;exitDy=0;dashed=1;endArrow=open;endFill=0;" parent="65" edge="1">
                    <mxGeometry relative="1" as="geometry">
                        <mxPoint x="140" y="70" as="sourcePoint"/>
                    </mxGeometry>
                </mxCell>
                <mxCell id="70" style="edgeStyle=none;html=1;dashed=1;endArrow=open;endFill=0;" parent="65" edge="1">
                    <mxGeometry relative="1" as="geometry">
                        <mxPoint x="237.5" y="100" as="targetPoint"/>
                    </mxGeometry>
                </mxCell>
                <mxCell id="71" style="edgeStyle=none;html=1;entryX=0.5;entryY=1;entryDx=0;entryDy=0;dashed=1;endArrow=open;endFill=0;" parent="65" edge="1">
                    <mxGeometry relative="1" as="geometry">
                        <mxPoint x="80" y="100" as="targetPoint"/>
                    </mxGeometry>
                </mxCell>
                <mxCell id="31" value="product" style="swimlane;whiteSpace=wrap;html=1;" parent="65" vertex="1">
                    <mxGeometry x="20" y="40" width="360" height="240" as="geometry"/>
                </mxCell>
                <mxCell id="17" value="&amp;lt;&amp;lt; interface &amp;gt;&amp;gt;&lt;br&gt;Fetcher" style="rounded=0;whiteSpace=wrap;html=1;" parent="31" vertex="1">
                    <mxGeometry x="20" y="40" width="120" height="60" as="geometry"/>
                </mxCell>
                <mxCell id="22" value="Product" style="rounded=0;whiteSpace=wrap;html=1;" parent="31" vertex="1">
                    <mxGeometry x="220" y="40" width="120" height="60" as="geometry"/>
                </mxCell>
                <mxCell id="6" value="&amp;lt;&amp;lt; interface &amp;gt;&amp;gt;&lt;br&gt;Chooser" style="rounded=0;whiteSpace=wrap;html=1;" parent="31" vertex="1">
                    <mxGeometry x="170" y="150" width="120" height="60" as="geometry"/>
                </mxCell>
                <mxCell id="23" style="edgeStyle=none;html=1;exitX=1;exitY=0.5;exitDx=0;exitDy=0;dashed=1;endArrow=open;endFill=0;" parent="31" source="17" target="22" edge="1">
                    <mxGeometry relative="1" as="geometry"/>
                </mxCell>
                <mxCell id="24" style="edgeStyle=none;html=1;dashed=1;endArrow=open;endFill=0;" parent="31" source="6" target="22" edge="1">
                    <mxGeometry relative="1" as="geometry"/>
                </mxCell>
                <mxCell id="21" style="edgeStyle=none;html=1;entryX=0.5;entryY=1;entryDx=0;entryDy=0;dashed=1;endArrow=open;endFill=0;" parent="31" source="6" target="17" edge="1">
                    <mxGeometry relative="1" as="geometry"/>
                </mxCell>
                <mxCell id="81" style="edgeStyle=none;html=1;endArrow=block;endFill=0;dashed=1;" edge="1" parent="31" source="75" target="6">
                    <mxGeometry relative="1" as="geometry"/>
                </mxCell>
                <mxCell id="75" value="DefaultChooser" style="rounded=0;whiteSpace=wrap;html=1;" parent="31" vertex="1">
                    <mxGeometry x="20" y="150" width="110" height="60" as="geometry"/>
                </mxCell>
                <mxCell id="38" value="feed" style="swimlane;whiteSpace=wrap;html=1;" parent="65" vertex="1">
                    <mxGeometry x="420" y="40" width="360" height="120" as="geometry"/>
                </mxCell>
                <mxCell id="46" style="edgeStyle=none;html=1;dashed=1;endArrow=open;endFill=0;" parent="38" source="39" target="40" edge="1">
                    <mxGeometry relative="1" as="geometry"/>
                </mxCell>
                <mxCell id="39" value="&amp;lt;&amp;lt; interface &amp;gt;&amp;gt;&lt;br&gt;Poster" style="rounded=0;whiteSpace=wrap;html=1;" parent="38" vertex="1">
                    <mxGeometry x="20" y="40" width="120" height="60" as="geometry"/>
                </mxCell>
                <mxCell id="40" value="Post" style="rounded=0;whiteSpace=wrap;html=1;" parent="38" vertex="1">
                    <mxGeometry x="220" y="40" width="120" height="60" as="geometry"/>
                </mxCell>
                <mxCell id="18" style="edgeStyle=none;html=1;exitX=0.5;exitY=1;exitDx=0;exitDy=0;dashed=1;endArrow=block;endFill=0;" parent="1" source="7" target="17" edge="1">
                    <mxGeometry relative="1" as="geometry"/>
                </mxCell>
                <mxCell id="28" style="edgeStyle=none;html=1;dashed=1;endArrow=open;endFill=0;" parent="1" source="7" target="22" edge="1">
                    <mxGeometry relative="1" as="geometry"/>
                </mxCell>
                <mxCell id="19" style="edgeStyle=none;html=1;exitX=0.5;exitY=1;exitDx=0;exitDy=0;dashed=1;endArrow=block;endFill=0;" parent="1" source="8" target="17" edge="1">
                    <mxGeometry relative="1" as="geometry"/>
                </mxCell>
                <mxCell id="29" style="edgeStyle=none;html=1;dashed=1;endArrow=open;endFill=0;" parent="1" source="8" target="22" edge="1">
                    <mxGeometry relative="1" as="geometry"/>
                </mxCell>
                <mxCell id="20" style="edgeStyle=none;html=1;dashed=1;endArrow=block;endFill=0;" parent="1" source="9" target="17" edge="1">
                    <mxGeometry relative="1" as="geometry"/>
                </mxCell>
                <mxCell id="30" value="" style="edgeStyle=none;html=1;dashed=1;endArrow=open;endFill=0;" parent="1" source="9" target="22" edge="1">
                    <mxGeometry relative="1" as="geometry"/>
                </mxCell>
                <mxCell id="35" value="" style="edgeStyle=none;html=1;dashed=1;endArrow=open;endFill=0;" parent="1" source="60" target="6" edge="1">
                    <mxGeometry relative="1" as="geometry">
                        <mxPoint x="327.1428571428571" y="640" as="sourcePoint"/>
                    </mxGeometry>
                </mxCell>
                <mxCell id="44" style="edgeStyle=none;html=1;dashed=1;endArrow=open;endFill=0;" parent="1" source="60" target="39" edge="1">
                    <mxGeometry relative="1" as="geometry">
                        <mxPoint x="420" y="700" as="sourcePoint"/>
                    </mxGeometry>
                </mxCell>
                <mxCell id="55" style="edgeStyle=none;html=1;dashed=1;endArrow=block;endFill=0;" parent="1" source="48" target="39" edge="1">
                    <mxGeometry relative="1" as="geometry"/>
                </mxCell>
                <mxCell id="56" style="edgeStyle=none;html=1;dashed=1;endArrow=block;endFill=0;" parent="1" source="53" target="39" edge="1">
                    <mxGeometry relative="1" as="geometry"/>
                </mxCell>
                <mxCell id="57" style="edgeStyle=none;html=1;dashed=1;endArrow=open;endFill=0;" parent="1" source="48" target="40" edge="1">
                    <mxGeometry relative="1" as="geometry"/>
                </mxCell>
                <mxCell id="58" style="edgeStyle=none;html=1;dashed=1;endArrow=open;endFill=0;" parent="1" source="53" target="40" edge="1">
                    <mxGeometry relative="1" as="geometry"/>
                </mxCell>
                <mxCell id="72" value="integrations" style="swimlane;whiteSpace=wrap;html=1;" parent="1" vertex="1">
                    <mxGeometry x="140" width="800" height="240" as="geometry"/>
                </mxCell>
                <mxCell id="2" value="Client" style="rounded=0;whiteSpace=wrap;html=1;" parent="72" vertex="1">
                    <mxGeometry x="20" y="60" width="120" height="60" as="geometry"/>
                </mxCell>
                <mxCell id="3" value="Client" style="rounded=0;whiteSpace=wrap;html=1;" parent="72" vertex="1">
                    <mxGeometry x="180" y="60" width="120" height="60" as="geometry"/>
                </mxCell>
                <mxCell id="4" value="Client" style="rounded=0;whiteSpace=wrap;html=1;" parent="72" vertex="1">
                    <mxGeometry x="340" y="60" width="120" height="60" as="geometry"/>
                </mxCell>
                <mxCell id="49" value="Client" style="rounded=0;whiteSpace=wrap;html=1;" parent="72" vertex="1">
                    <mxGeometry x="500" y="60" width="120" height="60" as="geometry"/>
                </mxCell>
                <mxCell id="48" value="Poster" style="rounded=0;whiteSpace=wrap;html=1;" parent="72" vertex="1">
                    <mxGeometry x="500" y="160" width="120" height="60" as="geometry"/>
                </mxCell>
                <mxCell id="50" value="" style="edgeStyle=none;html=1;dashed=1;endArrow=open;endFill=0;" parent="72" source="48" target="49" edge="1">
                    <mxGeometry relative="1" as="geometry"/>
                </mxCell>
                <mxCell id="9" value="ProductFetcher" style="rounded=0;whiteSpace=wrap;html=1;" parent="72" vertex="1">
                    <mxGeometry x="340" y="160" width="120" height="60" as="geometry"/>
                </mxCell>
                <mxCell id="16" style="edgeStyle=none;html=1;dashed=1;endArrow=open;endFill=0;" parent="72" source="9" target="4" edge="1">
                    <mxGeometry relative="1" as="geometry">
                        <mxPoint x="240" y="210" as="sourcePoint"/>
                        <mxPoint x="240" y="150" as="targetPoint"/>
                    </mxGeometry>
                </mxCell>
                <mxCell id="8" value="ProductFetcher" style="rounded=0;whiteSpace=wrap;html=1;" parent="72" vertex="1">
                    <mxGeometry x="180" y="160" width="120" height="60" as="geometry"/>
                </mxCell>
                <mxCell id="15" style="edgeStyle=none;html=1;dashed=1;endArrow=open;endFill=0;" parent="72" source="8" target="3" edge="1">
                    <mxGeometry relative="1" as="geometry">
                        <mxPoint x="80" y="210" as="sourcePoint"/>
                        <mxPoint x="80" y="150" as="targetPoint"/>
                    </mxGeometry>
                </mxCell>
                <mxCell id="7" value="ProductFetcher" style="rounded=0;whiteSpace=wrap;html=1;" parent="72" vertex="1">
                    <mxGeometry x="20" y="160" width="120" height="60" as="geometry"/>
                </mxCell>
                <mxCell id="13" style="edgeStyle=none;html=1;dashed=1;endArrow=open;endFill=0;" parent="72" source="7" target="2" edge="1">
                    <mxGeometry relative="1" as="geometry"/>
                </mxCell>
                <mxCell id="25" value="wildberries" style="swimlane;whiteSpace=wrap;html=1;" parent="72" vertex="1">
                    <mxGeometry x="10" y="30" width="140" height="200" as="geometry"/>
                </mxCell>
                <mxCell id="26" value="ozon" style="swimlane;whiteSpace=wrap;html=1;" parent="72" vertex="1">
                    <mxGeometry x="170" y="30" width="140" height="200" as="geometry"/>
                </mxCell>
                <mxCell id="27" value="ym" style="swimlane;whiteSpace=wrap;html=1;" parent="72" vertex="1">
                    <mxGeometry x="330" y="30" width="140" height="200" as="geometry"/>
                </mxCell>
                <mxCell id="47" value="telegram" style="swimlane;whiteSpace=wrap;html=1;" parent="72" vertex="1">
                    <mxGeometry x="490" y="30" width="140" height="200" as="geometry"/>
                </mxCell>
                <mxCell id="51" value="vk" style="swimlane;whiteSpace=wrap;html=1;" parent="72" vertex="1">
                    <mxGeometry x="650" y="30" width="140" height="200" as="geometry"/>
                </mxCell>
                <mxCell id="53" value="Poster" style="rounded=0;whiteSpace=wrap;html=1;" parent="51" vertex="1">
                    <mxGeometry x="10" y="130" width="120" height="60" as="geometry"/>
                </mxCell>
                <mxCell id="54" value="Client" style="rounded=0;whiteSpace=wrap;html=1;" parent="51" vertex="1">
                    <mxGeometry x="10" y="30" width="120" height="60" as="geometry"/>
                </mxCell>
                <mxCell id="52" value="" style="edgeStyle=none;html=1;dashed=1;endArrow=open;endFill=0;" parent="51" source="53" target="54" edge="1">
                    <mxGeometry relative="1" as="geometry"/>
                </mxCell>
                <mxCell id="78" style="edgeStyle=none;html=1;dashed=1;endArrow=open;endFill=0;" parent="1" source="77" target="60" edge="1">
                    <mxGeometry relative="1" as="geometry"/>
                </mxCell>
                <mxCell id="77" value="main" style="rounded=0;whiteSpace=wrap;html=1;" parent="1" vertex="1">
                    <mxGeometry x="480" y="850" width="120" height="60" as="geometry"/>
                </mxCell>
                <mxCell id="79" style="edgeStyle=none;html=1;dashed=1;endArrow=open;endFill=0;" parent="1" source="60" target="40" edge="1">
                    <mxGeometry relative="1" as="geometry"/>
                </mxCell>
                <mxCell id="80" style="edgeStyle=none;html=1;dashed=1;endArrow=open;endFill=0;" parent="1" source="60" target="22" edge="1">
                    <mxGeometry relative="1" as="geometry"/>
                </mxCell>
            </root>
        </mxGraphModel>
    </diagram>
</mxfile>